<?xml version="1.0" encoding="UTF-8" standalone="no"?>
<!DOCTYPE svg PUBLIC "-//W3C//DTD SVG 1.1//EN"
 "http://www.w3.org/Graphics/SVG/1.1/DTD/svg11.dtd">
<!-- Generated by graphviz version 2.42.3 (20191010.1750)
 -->
<!-- Title: finite_state_machine Pages: 1 -->
<svg width="432pt" height="169pt"
 viewBox="0.00 0.00 432.00 169.00" xmlns="http://www.w3.org/2000/svg" xmlns:xlink="http://www.w3.org/1999/xlink">
<g id="graph0" class="graph" transform="scale(1 1) rotate(0) translate(4 165)">
<title>finite_state_machine</title>
<polygon fill="white" stroke="transparent" points="-4,4 -4,-165 428,-165 428,4 -4,4"/>
<!-- 0 -->
<g id="node1" class="node">
<title>0</title>
<ellipse fill="none" stroke="black" cx="22" cy="-77" rx="18" ry="18"/>
<ellipse fill="none" stroke="black" cx="22" cy="-77" rx="22" ry="22"/>
<text text-anchor="middle" x="22" y="-73.3" font-family="Helvetica,Arial,sans-serif" font-size="14.00">0</text>
</g>
<!-- 3 -->
<g id="node2" class="node">
<title>3</title>
<ellipse fill="none" stroke="black" cx="121" cy="-77" rx="18" ry="18"/>
<ellipse fill="none" stroke="black" cx="121" cy="-77" rx="22" ry="22"/>
<text text-anchor="middle" x="121" y="-73.3" font-family="Helvetica,Arial,sans-serif" font-size="14.00">3</text>
</g>
<!-- 0&#45;&gt;3 -->
<g id="edge2" class="edge">
<title>0&#45;&gt;3</title>
<path fill="none" stroke="black" d="M44.05,-77C57.14,-77 74.21,-77 88.85,-77"/>
<polygon fill="black" stroke="black" points="88.99,-80.5 98.99,-77 88.99,-73.5 88.99,-80.5"/>
<text text-anchor="middle" x="71.5" y="-80.8" font-family="Helvetica,Arial,sans-serif" font-size="14.00"> 10</text>
</g>
<!-- 2 -->
<g id="node5" class="node">
<title>2</title>
<ellipse fill="none" stroke="black" cx="216" cy="-128" rx="18" ry="18"/>
<text text-anchor="middle" x="216" y="-124.3" font-family="Helvetica,Arial,sans-serif" font-size="14.00">2</text>
</g>
<!-- 0&#45;&gt;2 -->
<g id="edge1" class="edge">
<title>0&#45;&gt;2</title>
<path fill="none" stroke="black" d="M41.8,-86.82C48.13,-89.95 55.29,-93.29 62,-96 104.64,-113.2 115.61,-118.68 161,-126 169.6,-127.39 179.06,-128.03 187.63,-128.29"/>
<polygon fill="black" stroke="black" points="187.82,-131.79 197.87,-128.43 187.92,-124.79 187.82,-131.79"/>
<text text-anchor="middle" x="121" y="-125.8" font-family="Helvetica,Arial,sans-serif" font-size="14.00"> 8</text>
</g>
<!-- 1 -->
<g id="node6" class="node">
<title>1</title>
<ellipse fill="none" stroke="black" cx="216" cy="-18" rx="18" ry="18"/>
<text text-anchor="middle" x="216" y="-14.3" font-family="Helvetica,Arial,sans-serif" font-size="14.00">1</text>
</g>
<!-- 0&#45;&gt;1 -->
<g id="edge3" class="edge">
<title>0&#45;&gt;1</title>
<path fill="none" stroke="black" d="M39.74,-63.92C54.47,-53.16 76.95,-38.5 99,-31 128.28,-21.04 163.88,-18.33 187.85,-17.77"/>
<polygon fill="black" stroke="black" points="188.03,-21.27 197.99,-17.65 187.95,-14.27 188.03,-21.27"/>
<text text-anchor="middle" x="121" y="-34.8" font-family="Helvetica,Arial,sans-serif" font-size="14.00"> 7</text>
</g>
<!-- 4 -->
<g id="node3" class="node">
<title>4</title>
<ellipse fill="none" stroke="black" cx="311" cy="-73" rx="18" ry="18"/>
<ellipse fill="none" stroke="black" cx="311" cy="-73" rx="22" ry="22"/>
<text text-anchor="middle" x="311" y="-69.3" font-family="Helvetica,Arial,sans-serif" font-size="14.00">4</text>
</g>
<!-- 3&#45;&gt;4 -->
<g id="edge8" class="edge">
<title>3&#45;&gt;4</title>
<path fill="none" stroke="black" d="M143.2,-76.55C176.29,-75.84 240.4,-74.48 278.78,-73.66"/>
<polygon fill="black" stroke="black" points="278.95,-77.16 288.88,-73.45 278.8,-70.16 278.95,-77.16"/>
<text text-anchor="middle" x="216" y="-78.8" font-family="Helvetica,Arial,sans-serif" font-size="14.00"> 5</text>
</g>
<!-- 3&#45;&gt;2 -->
<g id="edge9" class="edge">
<title>3&#45;&gt;2</title>
<path fill="none" stroke="black" d="M140.82,-87.32C155.24,-95.23 175.23,-106.19 190.83,-114.75"/>
<polygon fill="black" stroke="black" points="189.44,-117.97 199.89,-119.71 192.8,-111.84 189.44,-117.97"/>
<text text-anchor="middle" x="170.5" y="-111.8" font-family="Helvetica,Arial,sans-serif" font-size="14.00"> 2</text>
</g>
<!-- 3&#45;&gt;1 -->
<g id="edge10" class="edge">
<title>3&#45;&gt;1</title>
<path fill="none" stroke="black" d="M138.74,-63.79C145.51,-58.66 153.49,-52.85 161,-48 170.46,-41.89 181.25,-35.75 190.68,-30.62"/>
<polygon fill="black" stroke="black" points="192.38,-33.68 199.56,-25.88 189.09,-27.51 192.38,-33.68"/>
<text text-anchor="middle" x="170.5" y="-51.8" font-family="Helvetica,Arial,sans-serif" font-size="14.00"> 16</text>
</g>
<!-- 5 -->
<g id="node7" class="node">
<title>5</title>
<ellipse fill="none" stroke="black" cx="406" cy="-30" rx="18" ry="18"/>
<text text-anchor="middle" x="406" y="-26.3" font-family="Helvetica,Arial,sans-serif" font-size="14.00">5</text>
</g>
<!-- 4&#45;&gt;5 -->
<g id="edge7" class="edge">
<title>4&#45;&gt;5</title>
<path fill="none" stroke="black" d="M331.27,-64.09C345.41,-57.55 364.74,-48.62 380.06,-41.53"/>
<polygon fill="black" stroke="black" points="381.84,-44.56 389.45,-37.19 378.9,-38.21 381.84,-44.56"/>
<text text-anchor="middle" x="360.5" y="-57.8" font-family="Helvetica,Arial,sans-serif" font-size="14.00"> 14</text>
</g>
<!-- 8 -->
<g id="node4" class="node">
<title>8</title>
<ellipse fill="none" stroke="black" cx="22" cy="-139" rx="18" ry="18"/>
<ellipse fill="none" stroke="black" cx="22" cy="-139" rx="22" ry="22"/>
<text text-anchor="middle" x="22" y="-135.3" font-family="Helvetica,Arial,sans-serif" font-size="14.00">8</text>
</g>
<!-- 2&#45;&gt;4 -->
<g id="edge4" class="edge">
<title>2&#45;&gt;4</title>
<path fill="none" stroke="black" d="M231.94,-119.16C245.63,-111.07 266.23,-98.88 282.83,-89.07"/>
<polygon fill="black" stroke="black" points="284.75,-92 291.57,-83.9 281.19,-85.97 284.75,-92"/>
<text text-anchor="middle" x="261.5" y="-110.8" font-family="Helvetica,Arial,sans-serif" font-size="14.00"> 12</text>
</g>
<!-- 1&#45;&gt;4 -->
<g id="edge5" class="edge">
<title>1&#45;&gt;4</title>
<path fill="none" stroke="black" d="M232.28,-26.15C243.17,-32.05 258.11,-40.3 271,-48 275.18,-50.5 279.57,-53.21 283.83,-55.9"/>
<polygon fill="black" stroke="black" points="281.97,-58.87 292.29,-61.31 285.75,-52.98 281.97,-58.87"/>
<text text-anchor="middle" x="261.5" y="-51.8" font-family="Helvetica,Arial,sans-serif" font-size="14.00"> 1</text>
</g>
<!-- 1&#45;&gt;5 -->
<g id="edge6" class="edge">
<title>1&#45;&gt;5</title>
<path fill="none" stroke="black" d="M234.02,-19.09C266.65,-21.17 338.29,-25.74 377.69,-28.26"/>
<polygon fill="black" stroke="black" points="377.68,-31.76 387.89,-28.91 378.13,-24.78 377.68,-31.76"/>
<text text-anchor="middle" x="311" y="-28.8" font-family="Helvetica,Arial,sans-serif" font-size="14.00"> 21</text>
</g>
</g>
</svg>
